<svg xmlns="http://www.w3.org/2000/svg" width="520" height="140" viewBox="0 0 520 140">
  <defs>
    <linearGradient id="a" x1="0" y1="0" x2="1" y2="1">
      <stop offset="0" stop-color="#5eead4"/>
      <stop offset="1" stop-color="#60a5fa"/>
    </linearGradient>
  </defs>
  <rect width="520" height="140" rx="26" fill="rgba(255,255,255,0.06)" stroke="rgba(255,255,255,0.18)" stroke-width="2"/>
  <circle cx="78" cy="70" r="36" fill="url(#a)" opacity="0.95"/>
  <path d="M78 46c10 10 14 20 14 30 0 16-12 28-26 28-10 0-20-6-24-16 8 4 16 4 22 0 9-6 12-18 6-30-2-5-6-9-8-12 5-2 11-2 16 0z" fill="#0b1220" opacity="0.9"/>
  <text x="140" y="62" fill="rgba(255,255,255,0.92)" font-size="26" font-family="ui-sans-serif, system-ui, -apple-system, Segoe UI, Roboto, Arial" font-weight="900">White Cement</text>
  <text x="140" y="92" fill="rgba(255,255,255,0.72)" font-size="18" font-family="ui-sans-serif, system-ui, -apple-system, Segoe UI, Roboto, Arial" font-weight="800">Specialties</text>
</svg>